<?xml version="1.0" encoding="utf-8"?>
<!-- Generator: Adobe Illustrator 19.0.0, SVG Export Plug-In . SVG Version: 6.00 Build 0)  -->
<svg version="1.1" id="Layer_1" xmlns="http://www.w3.org/2000/svg" xmlns:xlink="http://www.w3.org/1999/xlink" x="0px" y="0px"
	 viewBox="539 446 927 310" style="enable-background:new 539 446 927 310;" xml:space="preserve">
<style type="text/css">
	.st0{fill:#FFFFFF;stroke:#000000;stroke-miterlimit:10;}
	.st1{fill:#D63D00;}
	.st2{fill:#045F87;}
	.st3{fill:#054772;}
	.st4{fill:url(#SVGID_1_);}
	.st5{opacity:0.69;clip-path:url(#SVGID_3_);fill:url(#SVGID_4_);enable-background:new    ;}
</style>
<g>
	<g>
		<g>
			<g>
				<path class="st0" d="M969.4,697.5c-0.2-1.3-0.9-2.8-1.7-4c-1-1.5-2.4-2.6-4-3.3c-2.8-1.3-6-1.7-10-1.8h-31.4l0,0h-49.4l-2.4,5.7
					c-0.2-0.6-0.5-1.3-0.9-1.8l0,0l0,0c-1.3-1.8-3-2.6-4.9-3.2h-0.1h-0.1c-1.8-0.4-3.9-0.6-6.3-0.6c-0.2,0-0.6,0-0.9,0h-21.7
					c-0.2,0-0.4,0-0.5,0c-2.2,0-4,0.1-5.7,0.5c-1.7,0.4-3.3,0.9-4.7,1.9l0,0c-1.3,1-2.4,2.1-3.3,3.4c-0.2-0.7-0.5-1.3-1-1.9l0,0l0,0
					c-1.3-1.8-3-2.6-4.9-3.2h-0.1h-0.1c-1.8-0.4-3.9-0.6-6.3-0.6c-0.2,0-0.6,0-0.9,0h-21.7c-0.2,0-0.4,0-0.5,0c-2.2,0-4,0.1-5.7,0.5
					c-0.9,0.1-1.6,0.4-2.3,0.6l0.6-1.2h-46.1l-3.9,9.1c-0.2-1.3-0.9-2.8-1.7-4c-1-1.5-2.4-2.6-4-3.3c-2.8-1.3-6-1.7-10-1.8h-31.4
					l-2.8,6.7c-0.2-0.9-0.6-1.6-1.1-2.2c-0.9-1.1-1.9-1.9-3.2-2.4c-2.8-1.6-6.1-2.2-9.7-2.2h-32.4l-22.3,53.3h27.6l7.3-17.9h10.7
					c0.2,0,0.5,0,0.7,0c3.3,0,6.1-0.4,8.6-1.3c1-0.4,1.8-0.7,2.7-1.3l-8.6,20.6h28l1.8-4.6l1.1,4.6h65.1l2.4-5.8c0,0,0,0.1,0.1,0.1
					c0.6,1.2,1.6,2.1,2.6,2.8c2.8,2.1,6.2,2.8,10,2.8h21.6c4.3,0,7.7-0.4,10.6-1.9l0.2-0.1l0.1-0.1c1.7-1.2,3-2.8,4.1-4.6
					c0.1,0.4,0.2,0.7,0.5,1.1c0.6,1.2,1.6,2.1,2.6,2.8c2.8,2.1,6.2,2.8,10,2.8h21.5c4.3,0,7.7-0.4,10.6-1.9l0.2-0.1l0.1-0.1
					c1.7-1.2,3.2-2.8,4.1-4.6c0.2,1.1,0.7,2.2,1.5,3c0.9,1,1.7,1.6,2.7,2.1c1.5,0.7,2.9,1.1,4.5,1.3c1.7,0.2,3.5,0.4,5.6,0.4h30.1
					l0,0h28l1.8-4.6l1.1,4.6h65.1l7.2-17.4h-17.4l0.2-0.5h17.4l7.3-17.5H994l0.1-0.5h17.2l8.4-17.5h-46.1L969.4,697.5z M1394,693.5
					c-0.9-1.3-2.1-2.3-3.4-2.9c-3-1.5-6.6-1.9-10.7-1.9h-23.3c-2.1,0-4,0.1-5.6,0.2c-1.7,0.2-3,0.5-4.5,1.1l0,0l0,0
					c-2.4,1.1-4.3,3-5.5,5.5c-0.4-1.2-0.9-2.4-1.7-3.3c-0.7-0.9-1.6-1.5-2.4-1.9c-1.5-0.7-2.9-1.1-4.5-1.3c-1.7-0.2-3.5-0.4-5.6-0.4
					H1294l0,0h-24.6l0,0h-49.2l-2.3,5.5c-0.2-0.6-0.5-1.1-0.9-1.6l0,0l0,0c-1.3-1.8-3-2.6-4.9-3.2h-0.1h-0.1
					c-1.8-0.4-3.9-0.6-6.3-0.6c-0.2,0-0.6,0-0.9,0h-21.9c-0.1,0-0.4,0-0.5,0c-2.2,0-4,0.1-5.7,0.5s-3.3,0.9-4.7,1.9l0,0
					c-1.5,1-2.7,2.3-3.7,3.8c-0.2-1.2-0.9-2.4-1.8-3.4l-0.1-0.1l-0.2-0.1c-1.7-1.3-3.5-1.8-5.5-2.2c-1.8-0.2-3.9-0.4-6.7-0.4h-20.2
					c-2.3,0-4.4,0.1-6.1,0.5c-1.8,0.4-3.4,0.9-5,1.9l0,0l0,0c-0.2,0.1-0.4,0.2-0.6,0.5l1.2-2.8h-76l-15.9,38.6v0.1
					c-0.6,1.7-1,3.4-1,5.2c0,1.2,0.2,2.6,0.7,3.8c0.6,1.2,1.5,2.3,2.6,3l0,0l0,0c1.6,1,3.3,1.6,5.1,1.9c1.8,0.4,3.9,0.5,6.2,0.5
					h56.1l0,0h3.7l17.2,0.1l0,0h1.8h2.8l0,0h23.9l3.2-7.4c0.1,0.6,0.4,1.2,0.7,1.7c0.6,1.2,1.6,2.1,2.6,2.8c2.8,2.1,6.2,2.8,10,2.8
					h21.3c3.9,0,7.1-0.4,9.9-1.6l-0.7,1.6h49.7l0,0h24.6l0,0h51.6l2.7-6.2c0.1,0.6,0.4,1.3,0.7,1.8l0.1,0.1l0.1,0.1
					c0.7,1.1,1.7,1.8,2.7,2.3c1.5,0.7,2.8,1.1,4.5,1.3c1.6,0.2,3.4,0.4,5.5,0.4c0.2,0,0.5,0,0.7,0h23.4c1,0,1.8,0,2.7,0s1.7,0,2.4,0
					h0.1h0.1c1.7-0.1,3.2-0.5,4.6-0.9c1.6-0.5,3.2-1.5,4.4-2.6c1.3-1.2,2.3-2.8,3.2-4.5v-0.1l9.4-22.2h0.6l3.7-10.1l0,0
					c0.4-1.1,0.6-2.2,0.6-3.4C1395.4,696.4,1394.9,694.9,1394,693.5z"/>
				<g>
					<path class="st1" d="M615.7,737.5l18.7-44.8h29.5c3.3,0,5.8,0.6,7.8,1.7c2.2,1.1,2.8,2.6,2.1,4.5l-5.8,14.9
						c-1.1,2.4-2.7,4-4.9,4.9c-2.1,0.7-4.7,1.1-8,1.1h-13.6l-7.3,17.9L615.7,737.5L615.7,737.5z M648.8,701.6l-3.4,9h5l3.4-9H648.8z
						"/>
					<path class="st1" d="M664.9,737.6l18.9-44.8h28.4c3.7,0,6.5,0.5,8.2,1.5c1.9,1,3.2,2.6,3.4,4.9l-6.9,15.1
						c-0.4,1-1.1,1.8-2.1,2.6c-0.9,0.6-1.8,1.1-2.9,1.5s-2.1,0.7-3,1.1c-1,0.1-1.8,0.4-2.6,0.5l5,17.9h-18.4l-3.5-14.1l-5.7,14.1
						L664.9,737.6L664.9,737.6L664.9,737.6z M698.7,701.8l-4.1,8.9h5.1l3.7-8.9H698.7z"/>
					<path class="st1" d="M715.3,737.6l19.2-44.9h36.6l-4.3,9h-17.4l-3.7,8.9h17.2l-3.8,9h-17.4l-4,9h17.7l-3.7,8.9L715.3,737.6
						L715.3,737.6z"/>
					<path class="st1" d="M773.6,699.5c0.7-2.2,2.1-3.9,3.8-5.1c1.5-1.1,4.4-1.6,8.5-1.6h21.9c2.7,0,4.7,0.1,6.2,0.5
						c1.3,0.4,2.2,1,2.7,1.6c0.4,0.6,0.5,1.2,0.4,1.9c-0.2,0.9-0.5,1.6-0.9,2.2l-2.8,7.2h-18.1l1.8-4.5h-6.5l-3.5,9h24.5l-8.3,20.7
						c-0.9,2.2-2.1,3.8-3.5,4.7c-1.7,1-4.6,1.5-8.5,1.5h-21.5c-3.2,0-5.7-0.6-7.4-1.9c-1.6-1.1-2.1-2.7-1.6-4.6l2.9-6.8h17.9
						l-1.9,4.5h6.6l3.5-8.9h-24.5L773.6,699.5z"/>
					<path class="st1" d="M823.1,699.5c0.7-2.2,2.1-3.9,3.8-5.1c1.5-1.1,4.4-1.6,8.5-1.6h21.9c2.7,0,4.7,0.1,6.2,0.5
						c1.3,0.4,2.2,1,2.7,1.6c0.4,0.6,0.5,1.2,0.4,1.9c-0.2,0.9-0.5,1.6-0.9,2.2l-2.8,7.2h-18.1l1.8-4.5h-6.7l-3.5,9h24.5l-8.3,20.7
						c-0.9,2.2-2.1,3.8-3.5,4.7c-1.7,1-4.6,1.5-8.5,1.5h-21.5c-3.2,0-5.7-0.6-7.4-1.9c-1.6-1.1-2.1-2.7-1.6-4.6l2.9-6.8h18l-1.9,4.5
						h6.6l3.5-8.9h-24.6L823.1,699.5z"/>
					<path class="st1" d="M918.1,692.8L899,737.5h-29c-5.2,0-8.4-0.7-9.5-2.1c-1.1-1.3-1.1-3.5,0-6.3l15.2-36.3h18.9l-15.5,35.8h5.5
						l14.4-35.8L918.1,692.8L918.1,692.8z"/>
					<path class="st1" d="M906.4,737.6l18.9-44.8h28.5c3.7,0,6.5,0.5,8.2,1.5c1.9,1,3.2,2.6,3.4,4.9l-6.9,15.1
						c-0.4,1-1.1,1.8-2.1,2.6c-0.9,0.6-1.8,1.1-2.9,1.5s-2.1,0.7-3,1.1c-1,0.1-1.8,0.4-2.6,0.5l5,17.9h-18.4l-3.5-14.1l-5.7,14.1
						L906.4,737.6L906.4,737.6z M940.3,701.8l-4.1,8.9h5.1l3.7-8.9H940.3z"/>
					<path class="st1" d="M956.8,737.6l19.2-44.9h36.6l-4.3,9h-17.4l-3.7,8.9h17.2l-3.8,9h-17.4l-4,9h17.7l-3.7,8.9L956.8,737.6
						L956.8,737.6z"/>
					<path class="st1" d="M1092.2,692.8l-14.9,35.8h6.3l15.1-35.8h17.9l-18.6,44.7h-53.3c-4.3,0-7.2-0.6-8.9-1.7
						c-1.7-1.2-1.9-3.5-0.7-7.1l14.9-35.9h17.8l-14.5,35.8h6.3l14-35.8H1092.2L1092.2,692.8z"/>
					<path class="st1" d="M1104.7,737.5l16.8-38.7c1-1.9,2.2-3.4,3.7-4.5s4.3-1.6,8.6-1.6h20.2c2.6,0,4.6,0.1,6,0.4
						c1.6,0.2,2.7,0.6,3.4,1.2c0.7,0.7,1,1.7,0.9,2.9c-0.2,1.1-0.7,2.6-1.7,4.5l-15.1,35.9h-19.1l7.9-17.9h-5.2l-7.4,17.9
						L1104.7,737.5z M1135.4,710.7h4.6l3.8-8.9h-5L1135.4,710.7z"/>
					<path class="st1" d="M1170.6,699.5c0.7-2.2,2.1-3.9,3.8-5.1c1.5-1.1,4.4-1.6,8.5-1.6h21.9c2.7,0,4.7,0.1,6.2,0.5
						c1.3,0.4,2.2,1,2.7,1.6c0.4,0.6,0.5,1.2,0.4,1.9c-0.2,0.9-0.5,1.6-0.9,2.2l-2.8,7.2h-18.1l1.8-4.5h-6.5l-3.5,9h24.5l-8.3,20.7
						c-0.9,2.2-2.1,3.8-3.5,4.7c-1.7,1-4.6,1.5-8.5,1.5h-21.5c-3.2,0-5.7-0.6-7.4-1.9c-1.6-1.1-2.1-2.7-1.6-4.6l2.9-6.8h18l-1.9,4.5
						h6.6l3.5-8.9h-24.5L1170.6,699.5z"/>
					<path class="st1" d="M1203.7,737.6l19.4-44.7h18.5l-7.7,17.9h5.1l7.4-17.9h18.5l-18.9,44.7h-18.4l7.3-17.9h-4.5l-7.9,17.9
						H1203.7z"/>
					<path class="st1" d="M1253.3,737.6l19-44.8h19l-19.1,44.8H1253.3z"/>
					<path class="st1" d="M1278,737.6l18.9-44.8h29.7c5.2,0,8.4,0.7,9.5,2.2c1.3,1.3,1.3,3.5,0.1,6.3l-15.7,36.4h-19l15.3-35.9h-4.7
						l-15.5,35.9H1278L1278,737.6L1278,737.6z"/>
					<path class="st1" d="M1330.8,729.8l13.6-31.7c0.9-2.1,2.1-3.4,3.7-4.1c1.7-0.7,4.5-1.1,8.5-1.1h23.3c3.9,0,6.8,0.5,8.9,1.6
						c2.2,1.1,2.8,2.9,1.9,5.5l-2.7,7.3h-18.1l2.3-5.4h-10.3l-11.3,26.9h10l1.9-4.1h-6.1l4.3-9.4h23.6l-7.1,16.7
						c-0.7,1.5-1.5,2.6-2.2,3.3c-0.9,0.7-1.7,1.3-2.8,1.7c-1.1,0.4-2.3,0.6-3.8,0.7c-1.3,0-3,0-4.9,0H1340c-5.5,0-8.8-0.6-9.6-2.1
						C1329.6,734.1,1329.7,732.2,1330.8,729.8z"/>
				</g>
			</g>
		</g>
	</g>
	<g>
		<g>
			<g>
				<path class="st0" d="M1224.6,522c1.6-2.6,2.4-5.6,2.7-8.6v-0.2v-14c0-6.3-1.2-12.2-4-17.4c-2.6-5-6.3-9.1-10.8-12.4
					c-4.5-3.2-9.7-5.5-15.5-7.1c-5.7-1.5-11.8-2.2-18.1-2.2H998.2l0,0h-47l0,0h-63.1v46.4h63.1V538c0,0.7-0.1,1.2-0.7,2.2
					c-0.6,1-1.9,2.2-4.3,3.5c-4.4,2.6-9.1,3.9-15,3.9h-85.8c-3.4,0-6.3-0.4-9-1.1c-2.8-0.7-5-1.7-6.8-2.8c-1.8-1.1-2.9-2.2-3.7-3.2
					c-0.6-1-0.7-1.5-0.7-2.2V531H778v26.4c0,5.4,1.3,10.5,3.9,15.1s6.3,8.6,11,12.1l0,0l0,0c9.4,6.8,20.8,10.1,33.5,10.1h123.2h0.1
					l0,0h1.2l0,0h0.1h5.5c10.2-0.6,31.5-4.7,42.9-28.5h1.5l0.1,28.5h177.4c6.3,0,12.4-0.7,18.1-2.2c5.8-1.5,11.1-3.9,15.6-7.2
					s8.3-7.4,10.8-12.3c2.8-5.1,4-11.1,4-17.4v-13.9v-0.2c-0.2-3-1.1-6-2.7-8.6c-1.2-2.1-2.9-3.8-4.9-5.2
					C1221.7,526.1,1223.4,524.2,1224.6,522z"/>
				<g>
					<g>
						<path class="st2" d="M958.5,537.9v-70.6h36v90.2c-3.7,8.3-7.5,15.3-15.6,21.3c-8.2,5.7-17.9,8.6-29.2,8.6H826.4
							c-11.4,0-21.2-2.9-29.2-8.6c-8-6-11.9-13-11.9-21.3v-19.2h32.8c0,2.2,0.7,4.3,2.1,6.3c1.3,1.9,3.3,3.8,5.7,5.2
							c2.4,1.5,5.4,2.7,8.8,3.7c3.3,0.9,6.9,1.3,11,1.3h85.7c6.9,0,13.3-1.7,18.7-5C955.5,546.6,958.5,542.5,958.5,537.9z"/>
						<path class="st2" d="M1186,512.8v-13.6H895.4v-31.8h283.4c5.8,0,11.2,0.6,16.3,1.9c5.1,1.3,9.5,3.3,13,5.8
							c3.7,2.6,6.5,6,8.6,9.9c2.1,4,3.2,8.6,3.2,14v13.6c-0.6,8-7.7,13.1-21.3,15.7c13.6,1.1,20.8,5.6,21.3,13.6v13.6
							c0,5.4-1.1,10-3.2,13.9s-5,7.2-8.8,9.9c-3.7,2.7-8.2,4.6-13.1,6c-5.1,1.3-10.6,1.9-16.3,1.9h-164.4v-74.6L1186,512.8
							L1186,512.8z M1186,541.3h-139v14.5h139V541.3L1186,541.3z"/>
					</g>
				</g>
			</g>
		</g>
	</g>
	<g>
		<g>
			<g>
				<path class="st0" d="M973.9,650.2c1.9-1.8,3.4-4.4,4.3-7.1c0.9-2.7,1.2-5.7,1.2-9v-7.3c0-3.4-0.5-6.6-1.5-9.5
					c-1-2.8-2.4-5.2-4.3-7.2c-1.8-1.9-4.1-3.4-6.6-4.4c-2.4-0.9-4.9-1.3-7.5-1.3h-63.7l0,0h-64.9c-5.2,0-10.3,2.2-14,6.3
					c-2.1,2.2-3.7,4.9-4.6,7.8v-14h-21.7v30.2L777,604.5h-13.9l-14,30.4v-30.4h-21.7v14.1c-1-2.9-2.6-5.6-4.6-7.8
					c-3.8-4.1-8.8-6.5-14-6.5h-45c-5.2,0-10.3,2.2-14,6.2l0,0c-2.6,2.7-4.4,6.1-5.2,9.9c-0.2-1.1-0.5-2.2-0.9-3.2
					c-1-2.8-2.4-5.2-4.3-7.2c-1.8-1.9-4.1-3.4-6.6-4.4c-2.4-0.9-4.9-1.3-7.5-1.3h-64.9v75.4h21.7v-24.8h43.2
					c5.7,0,10.7-1.2,14.5-4.7c1.9-1.8,3.4-4.4,4.3-7.1l0,0v15.1c0,5.7,2.1,11.3,5.8,15.3l0,0l0,0c3.7,4,8.6,6.2,13.9,6.2h0.1h45
					c5.2,0,10.2-2.1,14-6.1l0,0l0,0c2.1-2.2,3.7-4.9,4.6-7.8v14h24.1l18.4-38.4l17.4,38.4h24.8v-14c1,2.9,2.6,5.6,4.6,7.8l0,0l0,0
					c3.7,4,8.6,6.2,13.9,6.2h0.1h63.8l0,0h21.7V655h27.5l15.1,24.8h24.7l-15.8-26.1C970.1,653,972.2,651.9,973.9,650.2z M707,647.7
					c0,0.4,0,0.6-0.2,0.9c-0.1,0.4-0.5,0.7-1.1,1.3c-1.1,1-2.3,1.5-4.1,1.5h-31c-1,0-1.7-0.1-2.3-0.4c-0.7-0.4-1.3-0.6-1.7-1.1
					c-0.5-0.4-0.7-0.7-0.9-1.1c-0.1-0.4-0.2-0.6-0.2-0.9v-12.3c0-0.4,0.1-0.6,0.2-1c0.1-0.2,0.4-0.7,1-1.1c1-0.9,2.1-1.3,4.1-1.3
					h30.9c2.1,0,3,0.5,3.9,1.3c1,1,1.3,1.7,1.6,2.3L707,647.7L707,647.7z M1423.5,604.4v40.9l-44.3-40.9h-18.9v66.1l-32.9-66.1
					h-16.7l-32.9,66.1v-66.1h-64.9c-5.2,0-10.3,2.2-14,6.2l0,0c-3.8,3.9-6,9.5-5.8,15.2v25.6h-56.9c-1,0-1.7-0.1-2.3-0.4
					c-0.7-0.4-1.3-0.6-1.7-1.1c-0.5-0.4-0.7-0.7-0.9-1.1c-0.1-0.4-0.2-0.6-0.2-0.9v-43.6h-85.3c-5.2,0-10.3,2.2-14,6.3
					c-3.8,3.9-6,9.5-5.8,15.2v32.4c0,5.7,2.1,11.3,5.8,15.3l0,0l0,0c3.7,4,8.6,6.2,13.9,6.2h0.1h64.9v-14c1,2.9,2.6,5.6,4.6,7.8l0,0
					l0,0c3.7,4,8.6,6.2,13.9,6.2h0.1h64.9v-14c1,2.9,2.6,5.6,4.6,7.8l0,0l0,0c3.7,4,8.6,6.2,13.9,6.2h0.1h64.9l0,0h18.6l13.4-24.8
					h18.5l13.1,24.8h18.6l0,0h21.7v-41.5l44.6,41.5h18.5v-75.4L1423.5,604.4L1423.5,604.4z M1109.5,651.4h-56.9
					c-1,0-1.7-0.1-2.3-0.4c-0.7-0.4-1.3-0.6-1.7-1.1c-0.5-0.4-0.7-0.7-0.9-1.1c-0.1-0.4-0.2-0.6-0.2-0.9v-12.3c0-0.4,0.1-0.6,0.2-1
					c0.1-0.2,0.4-0.7,1-1.1c1-0.9,2.1-1.3,4.1-1.3h56.7L1109.5,651.4L1109.5,651.4z"/>
				<path class="st2" d="M635.8,614c-1.3-1.5-2.9-2.4-4.7-3.2c-1.8-0.7-3.9-1.1-6-1.1h-60v17h62.7v7.3h-62.7v40.2H577v-24.8h48.1
					c5.1,0,9-1.1,11.4-3.4c2.4-2.3,3.7-6.2,3.7-11.9v-7.3c0-2.9-0.4-5.4-1.1-7.5C638.1,617.2,637.1,615.5,635.8,614z M708.6,609.8
					h-45c-4.1,0-7.8,1.6-10.7,4.7c-2.9,3.2-4.4,6.8-4.4,11.3v32.4c0,4.4,1.5,8.3,4.4,11.4c2.9,3.2,6.5,4.6,10.7,4.6h45
					c4.1,0,7.7-1.6,10.7-4.6c2.9-3.2,4.4-6.9,4.4-11.4v-32.3c0-4.4-1.5-8.2-4.4-11.3C716.4,611.5,712.7,609.8,708.6,609.8z
					 M711.9,647.7c0,2.4-1,4.6-3,6.5c-2.1,1.8-4.4,2.7-7.2,2.7h-30.9c-1.5,0-2.8-0.2-4-0.7c-1.2-0.5-2.3-1.1-3.2-1.9
					s-1.6-1.7-2.1-2.8s-0.7-2.2-0.7-3.4v-12.4c0.1-2.4,1.1-4.5,3-6.2s4.3-2.4,7.1-2.4h30.9c2.9,0,5.2,0.9,7.1,2.6
					c1.8,1.7,2.9,3.7,3.3,5.8v12.4h-0.3V647.7z M795.4,657.2L774,609.7h-7.9l-21.9,47.5v-47.5h-11.9v64.5h16.4l21.4-44.6l20.2,44.6
					h17v-64.5h-11.9V657.2L795.4,657.2z M820.2,614.6c-2.9,3.2-4.4,6.8-4.4,11.3v1h75.1v-17h-60C826.7,609.8,823,611.3,820.2,614.6z
					 M815.8,658.3c0,4.4,1.5,8.3,4.4,11.4c2.9,3.2,6.5,4.6,10.7,4.6h60v-17.5h-63.2v-7.3h63.2v-15.3h-75.1L815.8,658.3L815.8,658.3z
					 M974.5,634.2v-7.3c0-2.9-0.4-5.4-1.1-7.5c-0.7-2.2-1.8-3.9-3.2-5.4c-1.3-1.5-2.9-2.4-4.7-3.2c-1.8-0.7-3.9-1.1-6-1.1h-60v17
					h62.7v7.3h-62.7v40.2h11.9v-24.8h34.9l15.1,24.8h13l-15.1-24.8c5.1,0,9-1.1,11.4-3.4C973.3,643.8,974.5,639.8,974.5,634.2z"/>
				<path class="st3" d="M1035.1,614.6c-2.9,3.2-4.4,6.8-4.4,11.3v32.4c0,4.4,1.5,8.3,4.4,11.4s6.5,4.6,10.7,4.6h60v-17.5h-53.2
					c-1.5,0-2.8-0.2-4-0.7s-2.3-1.1-3.2-1.9c-0.9-0.9-1.6-1.7-2.1-2.8s-0.7-2.2-0.7-3.4v-12.4c0.1-2.4,1.1-4.5,3-6.2
					s4.3-2.4,7.1-2.4h53.1v-17h-60C1041.6,609.8,1038,611.3,1035.1,614.6z M1132.3,656.1c-1.2-0.5-2.3-1.1-3.2-1.9
					c-0.9-0.9-1.6-1.7-2.1-2.8s-0.7-2.2-0.7-3.4v-38.1h-11.9v48.5c0,4.4,1.5,8.3,4.4,11.4c2.9,3.2,6.5,4.6,10.7,4.6h60v-17.5h-53.1
					C1134.8,656.9,1133.5,656.6,1132.3,656.1z M1197.9,658.3c0,4.4,1.5,8.3,4.4,11.4c2.9,3.2,6.5,4.6,10.7,4.6h60v-17.5h-63.2v-7.3
					h63.2v-15.3h-75.1V658.3L1197.9,658.3z M1202.3,614.6c-2.9,3.2-4.4,6.8-4.4,11.3v1h75.1v-17h-60
					C1208.8,609.8,1205.2,611.3,1202.3,614.6z M1313.1,609.8l-8.6,17h15.3l4.3,8h-23l-19.4,39.4h12.2l13.4-24.8h24l13.1,24.8h12.3
					l-31.5-64.5L1313.1,609.8L1313.1,609.8z M1428.4,609.8v47l-50.9-47h-12.3v17h12.1l51,47.5h11.9v-64.5H1428.4L1428.4,609.8z
					 M1365.2,674.4h11.9v-39.7h-11.9V674.4z"/>
				
					<linearGradient id="SVGID_1_" gradientUnits="userSpaceOnUse" x1="836.6501" y1="325.0001" x2="1246.1501" y2="325.0001" gradientTransform="matrix(1 0 0 1 194 317)">
					<stop  offset="0" style="stop-color:#FFFFFF"/>
					<stop  offset="0.1243" style="stop-color:#064A76"/>
				</linearGradient>
				<path class="st4" d="M1035.1,614.6c-2.9,3.2-4.4,6.8-4.4,11.3v32.4c0,4.4,1.5,8.3,4.4,11.4s6.5,4.6,10.7,4.6h60v-17.5h-53.2
					c-1.5,0-2.8-0.2-4-0.7s-2.3-1.1-3.2-1.9c-0.9-0.9-1.6-1.7-2.1-2.8s-0.7-2.2-0.7-3.4v-12.4c0.1-2.4,1.1-4.5,3-6.2
					s4.3-2.4,7.1-2.4h53.1v-17h-60C1041.6,609.8,1038,611.3,1035.1,614.6z M1132.3,656.1c-1.2-0.5-2.3-1.1-3.2-1.9
					c-0.9-0.9-1.6-1.7-2.1-2.8s-0.7-2.2-0.7-3.4v-38.1h-11.9v48.5c0,4.4,1.5,8.3,4.4,11.4c2.9,3.2,6.5,4.6,10.7,4.6h60v-17.5h-53.1
					C1134.8,656.9,1133.5,656.6,1132.3,656.1z M1197.9,658.3c0,4.4,1.5,8.3,4.4,11.4c2.9,3.2,6.5,4.6,10.7,4.6h60v-17.5h-63.2v-7.3
					h63.2v-15.3h-75.1V658.3L1197.9,658.3z M1202.3,614.6c-2.9,3.2-4.4,6.8-4.4,11.3v1h75.1v-17h-60
					C1208.8,609.8,1205.2,611.3,1202.3,614.6z M1313.1,609.8l-8.6,17h15.3l4.3,8h-23l-19.4,39.4h12.2l13.4-24.8h24l13.1,24.8h12.3
					l-31.5-64.5L1313.1,609.8L1313.1,609.8z M1428.4,609.8v47l-50.9-47h-12.3v17h12.1l51,47.5h11.9v-64.5H1428.4L1428.4,609.8z
					 M1365.2,674.4h11.9v-39.7h-11.9V674.4z"/>
				<polygon class="st0" points="1025.6,625.3 1025.6,625.3 1010.5,625.3 1010.5,625.3 1006.4,625.3 1012.1,623.6 1012.1,623.6 
					1026.6,619.5 1026.6,619.5 1036.4,616.7 1035.6,613.8 1033.9,607.3 1024.1,610.1 1024.1,610.1 1008,614.7 1008,614.7 
					1003,616.1 1008.9,612.4 1008.9,612.4 1020.3,605.4 1020.3,605.4 1030.5,598.9 1028.9,596.2 1025.7,590.6 1017,596 1017,596 
					1004.1,604 1004.1,604 972.5,623.8 562.3,623.8 562.3,637.2 973.4,637.2 1002.4,655.3 1002.4,655.3 1015.1,663.3 1025.5,669.8 
					1026.8,667.5 1030.2,661.5 1021.6,656 1021.6,656 1008.4,647.9 1000.8,643 1009.8,645.4 1009.8,645.4 1022.7,648.8 
					1022.7,648.8 1034.3,651.9 1034.9,649.1 1036.6,642.4 1026.7,639.8 1026.7,639.8 1010.4,635.4 1008.9,635.1 1010.5,635.1 
					1010.5,635.1 1027.3,635.1 1027.3,635.1 1037.4,635.1 1037.4,625.3 				"/>
				<g>
					<rect x="565" y="626.8" class="st1" width="409" height="7.4"/>
					<g>
						<g>
							<rect x="971.4" y="628.3" class="st1" width="38.2" height="3.8"/>
							<rect x="1013.2" y="628.3" class="st1" width="11.4" height="3.8"/>
							<rect x="1028.3" y="628.3" class="st1" width="6.5" height="3.8"/>
						</g>
						<g>
							<polygon class="st1" points="1008.7,621.6 971.9,632 970.9,628.4 1007.7,617.9 							"/>
							<polygon class="st1" points="1023.3,617.4 1012.2,620.5 1011.2,616.8 1022.3,613.8 							"/>
							<polygon class="st1" points="1033,614.6 1026.7,616.3 1025.9,612.7 1032.1,611 							"/>
						</g>
						<g>
							<polygon class="st1" points="1007.8,641.8 970.9,632 971.8,628.4 1008.8,638.1 							"/>
							<polygon class="st1" points="1022.4,645.7 1011.4,642.8 1012.3,639.1 1023.4,642 							"/>
							<polygon class="st1" points="1032.3,648.2 1026,646.6 1027,642.9 1033.2,644.6 							"/>
						</g>
						<g>
							<polygon class="st1" points="1003,652.2 970.3,631.8 972.3,628.6 1004.9,649.1 							"/>
							<polygon class="st1" points="1015.9,660.4 1006.1,654.2 1008.1,651 1017.8,657.1 							"/>
							<polygon class="st1" points="1024.5,665.8 1019,662.4 1020.9,659.1 1026.5,662.6 							"/>
						</g>
						<g>
							<polygon class="st1" points="1005.2,611.3 972.4,631.8 970.6,628.5 1003.2,608.1 							"/>
							<polygon class="st1" points="1018.1,603.3 1008.2,609.4 1006.4,606.1 1016.1,600 							"/>
							<polygon class="st1" points="1026.7,597.8 1021.1,601.4 1019.3,598.1 1024.8,594.7 							"/>
						</g>
					</g>
				</g>
				<g>
					<g>
						<g>
							<g>
								<g>
									<defs>
										<path id="SVGID_2_" d="M1035.1,614.6c-2.9,3.2-4.4,6.8-4.4,11.3v32.4c0,4.4,1.5,8.3,4.4,11.4s6.5,4.6,10.7,4.6h60v-17.5
											h-53.2c-1.5,0-2.8-0.2-4-0.7s-2.3-1.1-3.2-1.9c-0.9-0.9-1.6-1.7-2.1-2.8s-0.7-2.2-0.7-3.4v-12.4c0.1-2.4,1.1-4.5,3-6.2
											s4.3-2.4,7.1-2.4h53.1v-17h-60C1041.6,609.8,1038,611.3,1035.1,614.6z M1132.3,656.1c-1.2-0.5-2.3-1.1-3.2-1.9
											c-0.9-0.9-1.6-1.7-2.1-2.8s-0.7-2.2-0.7-3.4v-38.1h-11.9v48.5c0,4.4,1.5,8.3,4.4,11.4c2.9,3.2,6.5,4.6,10.7,4.6h60v-17.5
											h-53.1C1134.8,656.9,1133.5,656.6,1132.3,656.1z M1197.9,658.3c0,4.4,1.5,8.3,4.4,11.4c2.9,3.2,6.5,4.6,10.7,4.6h60v-17.5
											h-63.2v-7.3h63.2v-15.3h-75.1V658.3L1197.9,658.3z M1202.3,614.6c-2.9,3.2-4.4,6.8-4.4,11.3v1h75.1v-17h-60
											C1208.8,609.8,1205.2,611.3,1202.3,614.6z M1313.1,609.8l-8.6,17h15.3l4.3,8h-23l-19.4,39.4h12.2l13.4-24.8h24l13.1,24.8
											h12.3l-31.5-64.5L1313.1,609.8L1313.1,609.8z M1428.4,609.8v47l-50.9-47h-12.3v17h12.1l51,47.5h11.9v-64.5H1428.4
											L1428.4,609.8z M1365.2,674.4h11.9v-39.7h-11.9V674.4z"/>
									</defs>
									<clipPath id="SVGID_3_">
										<use xlink:href="#SVGID_2_"  style="overflow:visible;"/>
									</clipPath>
									
										<linearGradient id="SVGID_4_" gradientUnits="userSpaceOnUse" x1="857.788" y1="254.8018" x2="1232.2544" y2="391.0963" gradientTransform="matrix(1 0 0.1543 1 161.611 317)">
										<stop  offset="0" style="stop-color:#FFFFFF"/>
										<stop  offset="2.902873e-002" style="stop-color:#CEDBE4"/>
										<stop  offset="7.405891e-002" style="stop-color:#88A8BD"/>
										<stop  offset="0.1147" style="stop-color:#50809F"/>
										<stop  offset="0.1493" style="stop-color:#286389"/>
										<stop  offset="0.1767" style="stop-color:#0F517B"/>
										<stop  offset="0.1934" style="stop-color:#064A76"/>
									</linearGradient>
									<path class="st5" d="M1034.7,688.2c-1.6-3.9,10.7-7.3,13.6-10.1c5-4.9,3.5-10.5,1.8-16.3c-1.2-4.1-1.9-6.7,2.9-9.6
										c6.1-3.8,12.2-3.7,11.6-10.6c-0.5-5.2-4.5-9.9-3.3-15.1c1.2-5.5,6.2-8.8,11.3-12.5c6.3-4.6,4.7-6.5,3.5-12.3
										c-0.9-4.6,6-7.9,7.9-11.8c4.3-8.3,37.3-4.9,37.3-4.9h337.3l0.2,101.5L1034.7,688.2z"/>
								</g>
							</g>
						</g>
					</g>
				</g>
			</g>
		</g>
	</g>
</g>
</svg>
